<!--?xml version="1.0" encoding="utf-8"?-->
<!-- Generator: Adobe Illustrator 15.1.0, SVG Export Plug-In . SVG Version: 6.00 Build 0)  -->

<svg version="1.1" id="_x32_" xmlns="http://www.w3.org/2000/svg" xmlns:xlink="http://www.w3.org/1999/xlink" x="0px" y="0px" width="512px" height="512px" viewBox="0 0 512 512" style="width: 512px; height: 512px; opacity: 1;" xml:space="preserve">
<style type="text/css">

	.st0{fill:#4B4B4B;}

</style>
<g>
	<path class="st0" d="M188.281,78.578C188.281,35.188,153.094,0,109.719,0C66.313,0,31.125,35.188,31.125,78.578
		s35.188,78.578,78.594,78.578C153.094,157.156,188.281,121.969,188.281,78.578z" style="fill: rgb(223, 86, 86);"></path>
	<path class="st0" d="M293.063,0c-43.406,0-78.594,35.188-78.594,78.578s35.188,78.578,78.594,78.578
		c43.375,0,78.563-35.188,78.563-78.578S336.438,0,293.063,0z" style="fill: rgb(223, 86, 86);"></path>
	<rect x="61.063" y="181.594" class="st0" width="273.156" height="183.344" style="fill: rgb(223, 86, 86);"></rect>
	<polygon class="st0" points="360.406,240.5 360.406,306.031 480.875,368.938 480.875,177.609 	" style="fill: rgb(223, 86, 86);"></polygon>
	<polygon class="st0" points="210.938,378.969 184.344,378.969 184.344,393.406 94.641,483.109 113.453,501.922 184.344,431.031 
		184.344,512 210.938,512 210.938,431.031 281.813,501.922 300.641,483.109 210.938,393.422 	" style="fill: rgb(223, 86, 86);"></polygon>
</g>
</svg>
